<?xml version="1.0" encoding="UTF-8" standalone="no"?><!DOCTYPE svg PUBLIC "-//W3C//DTD SVG 1.1//EN" "http://www.w3.org/Graphics/SVG/1.1/DTD/svg11.dtd"><svg width="100%" height="100%" viewBox="0 0 1700 520" version="1.1" xmlns="http://www.w3.org/2000/svg" xmlns:xlink="http://www.w3.org/1999/xlink" xml:space="preserve" xmlns:serif="http://www.serif.com/" style="fill-rule:evenodd;clip-rule:evenodd;stroke-linejoin:round;stroke-miterlimit:2;"><g id="Layer_1"><g><g><path d="M239.599,295.956c10.929,0 21.523,2.565 31.781,7.694c10.258,5.129 18.072,11.768 23.441,19.917c5.177,7.766 8.628,16.825 10.354,27.18c1.534,7.094 2.301,18.407 2.301,33.938l-112.888,0c0.479,15.627 4.17,28.162 11.073,37.605c6.903,9.443 17.592,14.165 32.069,14.165c13.518,0 24.303,-4.458 32.357,-13.374c4.602,-5.177 7.861,-11.169 9.779,-17.976l25.454,0c-0.671,5.656 -2.9,11.96 -6.687,18.911c-3.787,6.951 -8.029,12.631 -12.727,17.041c-7.861,7.67 -17.592,12.847 -29.193,15.531c-6.232,1.534 -13.278,2.301 -21.14,2.301c-19.174,0 -35.424,-6.975 -48.751,-20.924c-13.326,-13.949 -19.989,-33.483 -19.989,-58.601c0,-24.735 6.711,-44.82 20.133,-60.255c13.422,-15.435 30.966,-23.153 52.633,-23.153Zm41.273,68.164c-1.055,-11.217 -3.499,-20.181 -7.334,-26.892c-7.094,-12.463 -18.935,-18.695 -35.52,-18.695c-11.888,0 -21.859,4.29 -29.912,12.871c-8.053,8.58 -12.319,19.486 -12.799,32.716l85.565,0Z" style="fill:#646464;fill-rule:nonzero;"/><rect x="327.267" y="242.173" width="25.885" height="211.252" style="fill:#646464;fill-rule:nonzero;"/><g><rect x="383.291" y="300.127" width="26.317" height="153.298" style="fill:#646464;fill-rule:nonzero;"/><path d="M396.947,276.378c-9.484,0 -17.158,-7.629 -17.158,-17.024c0,-9.394 7.673,-17.024 17.158,-17.024c9.483,0 17.158,7.63 17.158,17.024c0,9.395 -7.675,17.024 -17.158,17.024Zm0,-5.89c6.215,0 11.267,-4.976 11.267,-11.134c0,-6.156 -5.052,-11.134 -11.267,-11.134c-6.216,0 -11.267,4.977 -11.267,11.134c0,6.157 5.052,11.134 11.267,11.134Z" style="fill:#5dcd55;"/></g><path d="M497.339,296.675c12.08,0 22.626,2.972 31.638,8.916c4.889,3.355 9.875,8.245 14.956,14.668l0,-19.414l23.872,0l0,140.068c0,19.558 -2.876,34.993 -8.628,46.306c-10.738,20.9 -31.014,31.35 -60.83,31.35c-16.586,0 -30.535,-3.715 -41.848,-11.145c-11.313,-7.43 -17.64,-19.054 -18.983,-34.873l26.317,0c1.246,6.903 3.739,12.224 7.478,15.963c5.848,5.752 15.052,8.628 27.611,8.628c19.845,0 32.836,-6.999 38.972,-20.996c3.643,-8.245 5.321,-22.961 5.033,-44.149c-5.177,7.861 -11.409,13.71 -18.695,17.544c-7.286,3.835 -16.921,5.752 -28.905,5.752c-16.682,0 -31.278,-5.92 -43.789,-17.76c-12.511,-11.84 -18.767,-31.422 -18.767,-58.745c0,-25.789 6.304,-45.922 18.911,-60.399c12.607,-14.477 27.827,-21.715 45.659,-21.715Zm46.593,79.094c0,-19.078 -3.931,-33.219 -11.792,-42.423c-7.861,-9.204 -17.88,-13.805 -30.056,-13.805c-18.216,0 -30.679,8.533 -37.39,25.598c-3.547,9.108 -5.321,21.044 -5.321,35.808c0,17.353 3.523,30.559 10.57,39.619c7.047,9.06 16.514,13.59 28.402,13.59c18.599,0 31.685,-8.389 39.259,-25.166c4.218,-9.491 6.328,-20.564 6.328,-33.219Z" style="fill:#646464;fill-rule:nonzero;"/><path d="M594.263,241.454l25.885,0l0,78.806c6.136,-7.766 11.648,-13.23 16.538,-16.394c8.341,-5.465 18.743,-8.197 31.206,-8.197c22.338,0 37.486,7.814 45.443,23.441c4.314,8.533 6.471,20.373 6.471,35.52l0,98.795l-26.604,0l0,-97.07c0,-11.313 -1.438,-19.606 -4.314,-24.879c-4.698,-8.437 -13.518,-12.655 -26.46,-12.655c-10.738,0 -20.469,3.691 -29.193,11.073c-8.724,7.382 -13.086,21.331 -13.086,41.848l0,81.682l-25.885,0l0,-211.971Z" style="fill:#646464;fill-rule:nonzero;"/><path d="M756.417,256.41l26.173,0l0,42.998l24.591,0l0,21.14l-24.591,0l0,100.521c0,5.369 1.822,8.964 5.465,10.786c2.013,1.055 5.369,1.582 10.066,1.582c1.246,0 2.589,-0.024 4.027,-0.072c1.438,-0.048 3.116,-0.168 5.033,-0.36l0,20.421c-2.972,0.863 -6.064,1.486 -9.276,1.869c-3.212,0.383 -6.687,0.575 -10.426,0.575c-12.08,0 -20.277,-3.092 -24.591,-9.276c-4.314,-6.184 -6.471,-14.213 -6.471,-24.088l0,-101.959l-20.852,0l0,-21.14l20.852,0l0,-42.998Z" style="fill:#646464;fill-rule:nonzero;"/><path d="M851.564,275.967c0.383,-10.738 2.253,-18.599 5.608,-23.584c6.04,-8.82 17.688,-13.23 34.945,-13.23c1.63,0 3.308,0.048 5.033,0.144c1.726,0.096 3.691,0.24 5.896,0.431l0,23.584c-2.684,-0.192 -4.626,-0.312 -5.824,-0.36c-1.198,-0.048 -2.325,-0.072 -3.379,-0.072c-7.861,0 -12.559,2.037 -14.093,6.112c-1.534,4.075 -2.301,14.453 -2.301,31.134l25.598,0l0,20.421l-25.885,0l0,132.878l-25.598,0l0,-132.878l-21.427,0l0,-20.421l21.427,0l0,-24.16Z" style="fill:#646464;fill-rule:nonzero;"/><path d="M951.283,299.408l0,102.247c0,7.861 1.246,14.285 3.739,19.27c4.602,9.204 13.182,13.805 25.741,13.805c18.024,0 30.295,-8.053 36.815,-24.16c3.547,-8.628 5.321,-20.469 5.321,-35.52l0,-75.642l25.885,0l0,154.017l-24.447,0l0.288,-22.721c-3.355,5.848 -7.526,10.786 -12.511,14.812c-9.875,8.053 -21.859,12.08 -35.952,12.08c-21.955,0 -36.91,-7.334 -44.868,-22.002c-4.314,-7.861 -6.471,-18.359 -6.471,-31.494l0,-104.691l26.46,0Z" style="fill:#646464;fill-rule:nonzero;"/><rect x="1072.099" y="242.173" width="25.885" height="211.252" style="fill:#646464;fill-rule:nonzero;"/><path d="M1123.721,242.173l28.618,0l0,186.086l106.992,0l0,25.166l-135.61,0l0,-211.252Z" style="fill:#5dcd55;fill-rule:nonzero;"/><path d="M1293.165,412.44c0,7.478 2.732,13.374 8.197,17.688c5.465,4.314 11.936,6.471 19.414,6.471c9.108,0 17.928,-2.109 26.46,-6.328c14.381,-6.999 21.571,-18.455 21.571,-34.37l0,-20.852c-3.164,2.013 -7.238,3.691 -12.224,5.033c-4.985,1.342 -9.875,2.301 -14.668,2.876l-15.675,2.013c-9.395,1.246 -16.442,3.212 -21.14,5.896c-7.957,4.506 -11.936,11.696 -11.936,21.571Zm62.7,-52.346c5.944,-0.767 9.923,-3.26 11.936,-7.478c1.15,-2.301 1.726,-5.608 1.726,-9.923c0,-8.82 -3.14,-15.22 -9.419,-19.198c-6.28,-3.979 -15.267,-5.968 -26.964,-5.968c-13.518,0 -23.105,3.643 -28.761,10.929c-3.164,4.027 -5.225,10.019 -6.184,17.976l-24.16,0c0.479,-18.983 6.639,-32.189 18.479,-39.619c11.84,-7.43 25.574,-11.145 41.201,-11.145c18.12,0 32.836,3.451 44.149,10.354c11.217,6.903 16.825,17.64 16.825,32.213l0,88.729c0,2.684 0.551,4.841 1.654,6.471c1.103,1.63 3.427,2.445 6.975,2.445c1.15,0 2.445,-0.072 3.883,-0.216c1.438,-0.144 2.972,-0.36 4.602,-0.647l0,19.126c-4.027,1.15 -7.094,1.869 -9.204,2.157c-2.109,0.288 -4.985,0.431 -8.628,0.431c-8.916,0 -15.387,-3.164 -19.414,-9.491c-2.109,-3.355 -3.595,-8.101 -4.458,-14.237c-5.273,6.903 -12.847,12.895 -22.721,17.976c-9.875,5.081 -20.756,7.622 -32.644,7.622c-14.285,0 -25.957,-4.338 -35.017,-13.015c-9.06,-8.676 -13.59,-19.534 -13.59,-32.572c0,-14.285 4.458,-25.358 13.374,-33.219c8.916,-7.861 20.612,-12.703 35.089,-14.524l41.273,-5.177Z" style="fill:#5dcd55;fill-rule:nonzero;"/><path d="M1426.811,241.454l25.166,0l0,76.649c5.656,-7.382 12.415,-13.015 20.277,-16.897c7.861,-3.883 16.394,-5.824 25.598,-5.824c19.174,0 34.729,6.591 46.665,19.773c11.936,13.182 17.904,32.62 17.904,58.314c0,24.351 -5.896,44.58 -17.688,60.687c-11.792,16.106 -28.138,24.16 -49.038,24.16c-11.696,0 -21.571,-2.828 -29.624,-8.485c-4.794,-3.355 -9.923,-8.724 -15.387,-16.106l0,19.702l-23.872,0l0,-211.971Zm67.302,193.995c13.997,0 24.471,-5.561 31.422,-16.682c6.951,-11.121 10.426,-25.789 10.426,-44.005c0,-16.202 -3.475,-29.624 -10.426,-40.266c-6.951,-10.642 -17.185,-15.963 -30.703,-15.963c-11.792,0 -22.122,4.362 -30.99,13.086c-8.868,8.724 -13.302,23.105 -13.302,43.142c0,14.477 1.822,26.221 5.465,35.233c6.807,16.969 19.51,25.454 38.109,25.454Z" style="fill:#5dcd55;fill-rule:nonzero;"/><path d="M1597.753,405.106c0.767,8.628 2.924,15.244 6.471,19.845c6.519,8.341 17.832,12.511 33.938,12.511c9.587,0 18.024,-2.085 25.31,-6.256c7.286,-4.17 10.929,-10.618 10.929,-19.342c0,-6.615 -2.924,-11.648 -8.772,-15.1c-3.739,-2.109 -11.121,-4.554 -22.146,-7.334l-20.564,-5.177c-13.134,-3.26 -22.817,-6.903 -29.049,-10.929c-11.121,-6.999 -16.682,-16.682 -16.682,-29.049c0,-14.572 5.249,-26.365 15.747,-35.376c10.498,-9.012 24.615,-13.518 42.351,-13.518c23.201,0 39.93,6.807 50.189,20.421c6.423,8.628 9.539,17.928 9.347,27.899l-24.447,0c-0.479,-5.848 -2.541,-11.169 -6.184,-15.963c-5.944,-6.807 -16.25,-10.21 -30.918,-10.21c-9.779,0 -17.185,1.869 -22.218,5.608c-5.033,3.739 -7.55,8.676 -7.55,14.812c0,6.711 3.308,12.08 9.923,16.106c3.835,2.397 9.491,4.506 16.969,6.328l17.113,4.17c18.599,4.506 31.062,8.868 37.39,13.086c10.066,6.615 15.1,17.017 15.1,31.206c0,13.71 -5.201,25.55 -15.603,35.52c-10.402,9.971 -26.245,14.956 -47.528,14.956c-22.913,0 -39.139,-5.201 -48.679,-15.603c-9.539,-10.402 -14.644,-23.273 -15.315,-38.612l24.879,0Z" style="fill:#5dcd55;fill-rule:nonzero;"/></g><path d="M138.574,442.801c-21.572,3.334 -54.114,6.046 -84.462,-1.056c-45.583,-13.132 -44.54,-65.283 -39.534,-80.082c0,-0.011 15.428,14.367 24.083,0.076c10.827,-17.878 25.034,0 25.034,0c0,0 15.406,15.562 25.034,0c11.565,-18.69 25.034,0.03 25.034,0.03c0,0 12.888,16.021 24.759,0.103c0.826,-0.166 -0.242,78.006 0.053,80.929Zm-37.563,-21.947c6.095,0 11.035,-4.889 11.035,-10.921c0,-6.031 -4.94,-10.921 -11.035,-10.921c-6.095,0 -11.035,4.89 -11.035,10.921c0,6.032 4.94,10.921 11.035,10.921Zm-48.595,-13.04c9.483,0 17.158,-7.629 17.158,-17.024c0,-9.394 -7.675,-17.024 -17.158,-17.024c-9.483,0 -17.158,7.63 -17.158,17.024c0,9.395 7.675,17.024 17.158,17.024Zm0,-5.89c-6.215,0 -11.267,-4.976 -11.267,-11.134c0,-6.156 5.052,-11.134 11.267,-11.134c6.215,0 11.267,4.977 11.267,11.134c0,6.157 -5.052,11.134 -11.267,11.134Z" style="fill:#5dcd55;"/><path d="M151.831,96.728l-0,357.038l-5.059,1.071c0,0 -45.361,9.61 -92.084,0.551l-0.048,-0.01c-21.545,-4.525 -37.525,-19.312 -46.483,-38.118c-12.342,-25.913 -11.145,-59.38 6.801,-83.04c11.114,-14.653 28.627,-25.703 53.519,-28.721c0.229,-25.806 -0.006,-123.006 -0.074,-148.886l-23.579,0l-0,-59.885l107.008,0Zm-12.762,59.648l-57.905,0.214c0.074,28.66 0.348,144.62 -0.021,154.953l-0.205,5.751l-5.742,0.388c-23.553,1.592 -40.014,10.993 -50.07,24.251c-15.088,19.893 -15.824,48.053 -5.447,69.84c7.264,15.251 20.073,27.422 37.547,31.108c35.027,6.779 69.259,2.451 81.843,0.387l-0,-286.892Zm-64.326,-12.525l0.024,-0l64.303,-0.238l-0,-34.123l-81.483,0l0,34.36l17.157,0Z" style="fill:#646464;"/><path d="M115.673,35.479c-9.483,0 -17.158,-7.63 -17.158,-17.024c0,-9.394 7.675,-17.024 17.158,-17.024c9.484,-0 17.158,7.63 17.158,17.024c0,9.394 -7.673,17.024 -17.158,17.024Zm0,-5.89c6.216,0 11.267,-4.977 11.267,-11.134c0,-6.156 -5.052,-11.134 -11.267,-11.134c-6.215,0 -11.267,4.977 -11.267,11.134c0,6.156 5.052,11.134 11.267,11.134Z" style="fill:#5dcd55;"/><path d="M104.874,268.193c-9.483,0 -17.158,-7.629 -17.158,-17.024c0,-9.394 7.675,-17.024 17.158,-17.024c9.484,0 17.158,7.63 17.158,17.024c0,9.395 -7.673,17.024 -17.158,17.024Zm0,-5.89c6.216,0 11.267,-4.976 11.267,-11.134c0,-6.156 -5.052,-11.134 -11.267,-11.134c-6.215,0 -11.267,4.977 -11.267,11.134c0,6.157 5.052,11.134 11.267,11.134Z" style="fill:#5dcd55;"/><path d="M115.182,200.037c6.095,0 11.035,-4.89 11.035,-10.921c0,-6.032 -4.94,-10.921 -11.035,-10.921c-6.094,0 -11.035,4.889 -11.035,10.921c0,6.031 4.941,10.921 11.035,10.921Z" style="fill:#5dcd55;fill-rule:nonzero;"/><path d="M115.182,326.44c6.095,0 11.035,-4.889 11.035,-10.921c0,-6.032 -4.94,-10.921 -11.035,-10.921c-6.094,0 -11.035,4.889 -11.035,10.921c0,6.032 4.941,10.921 11.035,10.921Z" style="fill:#5dcd55;fill-rule:nonzero;"/><path d="M104.383,79.685c6.095,0 11.035,-4.89 11.035,-10.921c0,-6.032 -4.94,-10.921 -11.035,-10.921c-6.094,0 -11.035,4.889 -11.035,10.921c0,6.031 4.941,10.921 11.035,10.921Z" style="fill:#5dcd55;fill-rule:nonzero;"/></g></g></svg>