<?xml version="1.0" encoding="UTF-8" standalone="no"?>
<!DOCTYPE svg PUBLIC "-//W3C//DTD SVG 1.1//EN" "http://www.w3.org/Graphics/SVG/1.1/DTD/svg11.dtd">
<svg width="100%" height="100%" viewBox="0 0 116 128" version="1.1" xmlns="http://www.w3.org/2000/svg" xmlns:xlink="http://www.w3.org/1999/xlink" xml:space="preserve" xmlns:serif="http://www.serif.com/" style="fill-rule:evenodd;clip-rule:evenodd;stroke-linejoin:round;stroke-miterlimit:2;">
    <g transform="matrix(0,-1.277432,1.277432,0,-270.957921,581.756651)">
        <path d="M420.341,292.585L390.281,292.585L390.281,287.575L380.261,287.575L380.261,282.565L375.25,282.565L375.25,277.555L370.24,277.555L370.24,267.535L365.23,267.535L365.23,247.495L370.24,247.495L370.24,237.475L380.261,237.475L380.261,242.485L385.271,242.485L385.271,247.495L390.281,247.495L390.281,252.505L395.291,252.505L395.291,257.516L400.301,257.516L400.301,262.525L405.311,262.525L405.311,267.535L410.321,267.535L410.321,272.545L415.331,272.545L415.331,277.555L420.341,277.555L420.341,282.565L425.351,282.565L425.351,287.575L420.341,287.575L420.341,292.585ZM390.281,222.445L420.341,222.445L420.341,227.455L430.361,227.455L430.361,232.465L435.371,232.465L435.371,237.475L440.381,237.475L440.381,247.495L445.391,247.495L445.391,267.535L440.381,267.535L440.381,277.555L430.361,277.555L430.361,272.545L425.351,272.545L425.351,267.535L420.341,267.535L420.341,262.525L415.331,262.525L415.331,257.516L410.321,257.516L410.321,252.505L405.311,252.505L405.311,247.495L400.301,247.495L400.301,242.485L395.291,242.485L395.291,237.475L390.281,237.475L390.281,232.465L385.271,232.465L385.271,227.455L390.281,227.455L390.281,222.445ZM450.401,242.485L450.401,232.465L445.391,232.465L445.391,227.455L440.381,227.455L440.381,222.445L435.371,222.445L435.371,217.435L420.341,217.435L420.341,212.425L390.281,212.425L390.281,217.435L375.25,217.435L375.25,222.445L370.24,222.445L370.24,227.455L365.23,227.455L365.23,232.465L360.22,232.465L360.22,242.485L355.21,242.485L355.21,272.545L360.22,272.545L360.22,282.565L365.23,282.565L365.23,287.575L370.24,287.575L370.24,292.585L375.25,292.585L375.25,297.595L390.281,297.595L390.281,302.605L420.341,302.605L420.341,297.595L435.371,297.595L435.371,292.585L440.381,292.585L440.381,287.575L445.391,287.575L445.391,282.565L450.401,282.565L450.401,272.545L455.411,272.545L455.411,242.485L450.401,242.485Z" style="fill-rule:nonzero;"/>
    </g>
</svg>
