<?xml version="1.0" encoding="UTF-8" standalone="no"?>
<!DOCTYPE svg PUBLIC "-//W3C//DTD SVG 1.1//EN" "http://www.w3.org/Graphics/SVG/1.1/DTD/svg11.dtd">
<svg width="100%" height="100%" viewBox="0 0 100 128" version="1.1" xmlns="http://www.w3.org/2000/svg" xmlns:xlink="http://www.w3.org/1999/xlink" xml:space="preserve" xmlns:serif="http://www.serif.com/" style="fill-rule:evenodd;clip-rule:evenodd;stroke-linejoin:round;stroke-miterlimit:2;">
    <g transform="matrix(1.161314,0,0,1.161314,2.386137,-54.692071)">
        <g transform="matrix(1,0,0,1,-211.504997,0)">
            <path d="M290.08,92.185L290.08,87.175L285.07,87.175L285.07,82.165L275.05,82.165L275.05,77.155L260.019,77.155L260.019,72.145L250,72.145L250,52.105L244.99,52.105L244.99,47.095L234.97,47.095L234.97,52.105L229.96,52.105L229.96,97.195L224.95,97.195L224.95,92.185L209.92,92.185L209.92,107.214L214.93,107.214L214.93,112.224L219.94,112.224L219.94,122.244L224.95,122.244L224.95,132.265L229.96,132.265L229.96,142.285L234.97,142.285L234.97,157.315L285.07,157.315L285.07,142.285L290.08,142.285L290.08,127.255L295.09,127.255L295.09,92.185L290.08,92.185Z" style="fill:white;fill-rule:nonzero;"/>
        </g>
        <g transform="matrix(1,0,0,1,-211.504997,0)">
            <rect x="229.96" y="52.105" width="5.01" height="60.119" style="fill-rule:nonzero;"/>
        </g>
        <g transform="matrix(1,0,0,1,-211.504997,0)">
            <rect x="234.97" y="47.095" width="10.02" height="5.01" style="fill-rule:nonzero;"/>
        </g>
        <g transform="matrix(1,0,0,1,-211.504997,0)">
            <rect x="244.99" y="52.105" width="5.01" height="45.09" style="fill-rule:nonzero;"/>
        </g>
        <g transform="matrix(1,0,0,1,-211.504997,0)">
            <rect x="250" y="72.145" width="10.019" height="5.01" style="fill-rule:nonzero;"/>
        </g>
        <g transform="matrix(1,0,0,1,-211.504997,0)">
            <rect x="260.019" y="82.165" width="5.011" height="15.03" style="fill-rule:nonzero;"/>
        </g>
        <g transform="matrix(1,0,0,1,-211.504997,0)">
            <rect x="260.019" y="77.155" width="15.031" height="5.01" style="fill-rule:nonzero;"/>
        </g>
        <g transform="matrix(1,0,0,1,-211.504997,0)">
            <rect x="275.05" y="87.175" width="5.01" height="15.02" style="fill-rule:nonzero;"/>
        </g>
        <g transform="matrix(1,0,0,1,-211.504997,0)">
            <rect x="275.05" y="82.165" width="10.02" height="5.01" style="fill-rule:nonzero;"/>
        </g>
        <g transform="matrix(1,0,0,1,-211.504997,0)">
            <rect x="285.07" y="87.175" width="5.01" height="5.01" style="fill-rule:nonzero;"/>
        </g>
        <g transform="matrix(1,0,0,1,-211.504997,0)">
            <rect x="290.08" y="92.185" width="5.01" height="35.07" style="fill-rule:nonzero;"/>
        </g>
        <g transform="matrix(1,0,0,1,-211.504997,0)">
            <rect x="285.07" y="127.255" width="5.01" height="15.03" style="fill-rule:nonzero;"/>
        </g>
        <g transform="matrix(1,0,0,1,-211.504997,0)">
            <rect x="280.06" y="142.285" width="5.01" height="15.03" style="fill-rule:nonzero;"/>
        </g>
        <g transform="matrix(1,0,0,1,-211.504997,0)">
            <rect x="234.97" y="152.305" width="45.09" height="5.01" style="fill-rule:nonzero;"/>
        </g>
        <g transform="matrix(1,0,0,1,-211.504997,0)">
            <rect x="224.95" y="97.195" width="5.01" height="5.009" style="fill-rule:nonzero;"/>
        </g>
        <g transform="matrix(1,0,0,1,-211.504997,0)">
            <rect x="209.92" y="92.185" width="15.03" height="5.01" style="fill-rule:nonzero;"/>
        </g>
        <g transform="matrix(1,0,0,1,-211.504997,0)">
            <rect x="209.92" y="97.195" width="5.01" height="10.019" style="fill-rule:nonzero;"/>
        </g>
        <g transform="matrix(1,0,0,1,-211.504997,0)">
            <rect x="214.93" y="107.214" width="5.01" height="5.01" style="fill-rule:nonzero;"/>
        </g>
        <g transform="matrix(1,0,0,1,-211.504997,0)">
            <rect x="219.94" y="112.224" width="5.01" height="10.02" style="fill-rule:nonzero;"/>
        </g>
        <g transform="matrix(1,0,0,1,-211.504997,0)">
            <rect x="224.95" y="122.244" width="5.01" height="10.021" style="fill-rule:nonzero;"/>
        </g>
        <g transform="matrix(1,0,0,1,-211.504997,0)">
            <rect x="229.96" y="132.265" width="5.01" height="10.02" style="fill-rule:nonzero;"/>
        </g>
        <g transform="matrix(1,0,0,1,-211.504997,0)">
            <rect x="234.97" y="142.285" width="5.01" height="10.02" style="fill-rule:nonzero;"/>
        </g>
    </g>
</svg>
