<?xml version="1.0" encoding="UTF-8" standalone="no"?>
<!DOCTYPE svg PUBLIC "-//W3C//DTD SVG 1.1//EN" "http://www.w3.org/Graphics/SVG/1.1/DTD/svg11.dtd">
<svg width="100%" height="100%" viewBox="0 0 1569 2894" version="1.1" xmlns="http://www.w3.org/2000/svg" xmlns:xlink="http://www.w3.org/1999/xlink" xml:space="preserve" xmlns:serif="http://www.serif.com/" style="fill-rule:evenodd;clip-rule:evenodd;stroke-linecap:round;stroke-linejoin:round;stroke-miterlimit:1.5;">
    <g transform="matrix(1,0,0,1,-6.5,-4)">
        <g transform="matrix(1,0,0,1,143,30)">
            <path d="M0,0L1296,0L1296,29L1325,29L1325,58L1354,58L1354,87L1382,87L1382,661L1411,661L1411,1034L1382,1034L1382,2756L1354,2756L1354,2813L1296,2813L1296,2842L0,2842L0,2813L-28,2813L-28,2785L-57,2785L-57,2727L-86,2727L-86,1062L-115,1062L-115,861L-86,861L-86,833L-115,833L-115,632L-86,632L-86,115L-57,115L-57,58L-28,58L-28,29L0,29L0,0Z" style="fill:rgb(254,254,254);fill-rule:nonzero;"/>
        </g>
        <g transform="matrix(1,0,0,1,143,30)">
            <path d="M0,0L1296,0L1296,29L1325,29L1325,58L1354,58L1354,87L1382,87L1382,661L1411,661L1411,1034L1382,1034L1382,2756L1354,2756L1354,2813L1296,2813L1296,2842L0,2842L0,2813L-28,2813L-28,2785L-57,2785L-57,2727L-86,2727L-86,1062L-115,1062L-115,861L-86,861L-86,833L-115,833L-115,632L-86,632L-86,115L-57,115L-57,58L-28,58L-28,29L0,29L0,0ZM58,58L58,87L0,87L0,144L-28,144L-28,2727L0,2727L0,2756L29,2756L29,2785L1267,2785L1267,2756L1296,2756L1296,2727L1325,2727L1325,115L1296,115L1296,87L1267,87L1267,58L979,58L979,87L951,87L951,144L922,144L922,173L375,173L375,144L346,144L346,58L58,58Z" style="fill-rule:nonzero;"/>
        </g>
        <g transform="matrix(1,0,0,1,1468,231)">
            <rect x="0" y="0" width="29" height="2469" style="fill:rgb(101,101,101);fill-rule:nonzero;"/>
        </g>
        <g transform="matrix(1,0,0,1,1525,691)">
            <rect x="0" y="0" width="29" height="373" style="fill:rgb(34,34,34);fill-rule:nonzero;"/>
        </g>
        <g transform="matrix(1,0,0,1,690,88)">
            <rect x="0" y="0" width="231" height="29" style="fill:white;fill-rule:nonzero;"/>
        </g>
        <g transform="matrix(1,0,0,1,28,891)">
            <rect x="0" y="0" width="29" height="201" style="fill:rgb(34,34,34);fill-rule:nonzero;"/>
        </g>
        <g transform="matrix(1,0,0,1,28,662)">
            <rect x="0" y="0" width="29" height="201" style="fill:rgb(34,34,34);fill-rule:nonzero;"/>
        </g>
        <g transform="matrix(1,0,0,1,950,88)">
            <rect x="0" y="0" width="57" height="29" style="fill:white;fill-rule:nonzero;"/>
        </g>
        <g transform="matrix(1,0,0,1,1468,2671)">
            <rect x="0" y="0" width="29" height="29" style="fill:rgb(77,77,77);fill-rule:nonzero;"/>
        </g>
        <g transform="matrix(1,0,0,1,1468,203)">
            <rect x="0" y="0" width="29" height="28" style="fill:rgb(28,28,28);fill-rule:nonzero;"/>
        </g>
        <g transform="matrix(1,0,0,1,115,145)">
            <rect x="0" y="0" width="28" height="29" style="fill:rgb(18,18,18);fill-rule:nonzero;"/>
        </g>
    </g>
    <g transform="matrix(1,0,0,1,-23.5,458)">
        <path d="M328,1121.5L1288,1121.5" style="fill:none;stroke:black;stroke-width:28px;"/>
        <g transform="matrix(1,0,0,1.128696,0,-276.832174)">
            <rect x="328" y="834" width="960" height="575" style="fill:none;stroke:black;stroke-width:26.26px;"/>
        </g>
        <g transform="matrix(1,0,0,1,5.200177,151)">
            <g transform="matrix(88,0,0,88,750.000628,1093.639875)">
                <path d="M0.3,0.012C0.248,0.012 0.203,-0.001 0.163,-0.027C0.124,-0.053 0.093,-0.091 0.071,-0.141C0.049,-0.192 0.038,-0.254 0.038,-0.329C0.038,-0.401 0.049,-0.463 0.071,-0.512C0.093,-0.562 0.124,-0.6 0.163,-0.625C0.203,-0.651 0.248,-0.664 0.3,-0.664C0.352,-0.664 0.397,-0.651 0.437,-0.625C0.476,-0.6 0.507,-0.562 0.529,-0.512C0.551,-0.463 0.562,-0.401 0.562,-0.329C0.562,-0.254 0.551,-0.192 0.529,-0.141C0.507,-0.091 0.476,-0.053 0.437,-0.027C0.397,-0.001 0.352,0.012 0.3,0.012ZM0.3,-0.115C0.323,-0.115 0.342,-0.123 0.359,-0.139C0.376,-0.155 0.388,-0.179 0.398,-0.211C0.407,-0.243 0.411,-0.282 0.411,-0.329C0.411,-0.374 0.407,-0.412 0.398,-0.443C0.388,-0.474 0.376,-0.497 0.359,-0.513C0.342,-0.529 0.323,-0.537 0.3,-0.537C0.277,-0.537 0.258,-0.529 0.241,-0.513C0.224,-0.497 0.212,-0.474 0.202,-0.443C0.193,-0.412 0.189,-0.374 0.189,-0.329C0.189,-0.282 0.193,-0.243 0.202,-0.211C0.212,-0.179 0.224,-0.155 0.241,-0.139C0.258,-0.123 0.277,-0.115 0.3,-0.115Z" style="fill-rule:nonzero;"/>
            </g>
            <g transform="matrix(88,0,0,88,802.799823,1093.639875)">
                <path d="M0.068,-0L0.068,-0.652L0.217,-0.652L0.217,-0.385L0.22,-0.385L0.413,-0.652L0.576,-0.652L0.217,-0.178L0.217,-0L0.068,-0ZM0.431,-0L0.279,-0.303L0.366,-0.418L0.594,-0L0.431,-0Z" style="fill-rule:nonzero;"/>
            </g>
            <g transform="matrix(88,0,0,88,855.599017,1093.639875)">
            </g>
        </g>
        <g transform="matrix(1,0,0,1,-53.799823,-280)">
            <g transform="matrix(88,0,0,88,492.205462,1094.139)">
                <path d="M0.088,-0L0.088,-0.654L0.303,-0.654C0.351,-0.654 0.394,-0.648 0.431,-0.635C0.468,-0.622 0.498,-0.601 0.52,-0.572C0.541,-0.543 0.552,-0.503 0.552,-0.452C0.552,-0.404 0.541,-0.364 0.519,-0.333C0.497,-0.302 0.468,-0.278 0.43,-0.263C0.392,-0.248 0.35,-0.24 0.303,-0.24L0.204,-0.24L0.204,-0L0.088,-0ZM0.204,-0.333L0.294,-0.333C0.343,-0.333 0.379,-0.343 0.402,-0.363C0.426,-0.383 0.438,-0.413 0.438,-0.452C0.438,-0.493 0.426,-0.522 0.401,-0.537C0.377,-0.553 0.341,-0.561 0.294,-0.561L0.204,-0.561L0.204,-0.333Z" style="fill-rule:nonzero;"/>
            </g>
            <g transform="matrix(88,0,0,88,545.004657,1094.139)">
                <path d="M0.401,0.012C0.344,0.012 0.3,-0.005 0.271,-0.038C0.241,-0.072 0.226,-0.119 0.226,-0.179L0.226,-0.615L0.066,-0.615L0.066,-0.706L0.341,-0.706L0.341,-0.173C0.341,-0.14 0.35,-0.116 0.367,-0.103C0.384,-0.089 0.404,-0.082 0.429,-0.082C0.442,-0.082 0.455,-0.083 0.468,-0.086C0.482,-0.09 0.497,-0.095 0.513,-0.101L0.54,-0.016C0.517,-0.008 0.495,-0.001 0.474,0.004C0.454,0.009 0.429,0.012 0.401,0.012Z" style="fill-rule:nonzero;"/>
            </g>
            <g transform="matrix(88,0,0,88,597.803851,1094.139)">
                <path d="M0.33,0.012C0.28,0.012 0.234,0.002 0.194,-0.018C0.153,-0.039 0.121,-0.068 0.097,-0.107C0.073,-0.145 0.061,-0.192 0.061,-0.246C0.061,-0.3 0.073,-0.345 0.097,-0.384C0.121,-0.422 0.152,-0.452 0.191,-0.472C0.23,-0.493 0.271,-0.503 0.315,-0.503C0.363,-0.503 0.405,-0.493 0.439,-0.473C0.472,-0.453 0.498,-0.426 0.516,-0.391C0.534,-0.356 0.542,-0.316 0.542,-0.27C0.542,-0.259 0.542,-0.248 0.541,-0.237C0.54,-0.227 0.539,-0.218 0.537,-0.212L0.144,-0.212L0.144,-0.294L0.463,-0.294L0.441,-0.268C0.44,-0.317 0.43,-0.353 0.408,-0.378C0.387,-0.402 0.357,-0.414 0.318,-0.414C0.291,-0.414 0.267,-0.408 0.245,-0.395C0.223,-0.383 0.206,-0.364 0.193,-0.339C0.181,-0.314 0.174,-0.283 0.174,-0.246C0.174,-0.208 0.181,-0.177 0.196,-0.152C0.21,-0.127 0.23,-0.108 0.256,-0.096C0.281,-0.084 0.311,-0.077 0.345,-0.077C0.371,-0.077 0.395,-0.081 0.417,-0.088C0.439,-0.095 0.461,-0.105 0.483,-0.118L0.522,-0.046C0.496,-0.029 0.467,-0.015 0.434,-0.004C0.401,0.007 0.366,0.012 0.33,0.012Z" style="fill-rule:nonzero;"/>
            </g>
            <g transform="matrix(88,0,0,88,650.603045,1094.139)">
                <path d="M0.235,0.012C0.203,0.012 0.175,0.006 0.15,-0.006C0.126,-0.018 0.106,-0.035 0.092,-0.057C0.078,-0.079 0.071,-0.104 0.071,-0.132C0.071,-0.187 0.097,-0.229 0.149,-0.258C0.202,-0.287 0.289,-0.305 0.41,-0.314C0.409,-0.332 0.404,-0.349 0.396,-0.363C0.388,-0.378 0.375,-0.389 0.358,-0.398C0.342,-0.406 0.32,-0.41 0.293,-0.41C0.275,-0.41 0.256,-0.408 0.238,-0.403C0.22,-0.399 0.202,-0.392 0.184,-0.384C0.167,-0.376 0.149,-0.367 0.132,-0.358L0.09,-0.435C0.11,-0.447 0.132,-0.458 0.156,-0.468C0.18,-0.479 0.205,-0.487 0.232,-0.494C0.259,-0.5 0.286,-0.503 0.314,-0.503C0.36,-0.503 0.398,-0.495 0.429,-0.479C0.461,-0.462 0.485,-0.438 0.501,-0.407C0.517,-0.375 0.525,-0.336 0.525,-0.291L0.525,-0L0.431,-0L0.422,-0.061L0.419,-0.061C0.393,-0.041 0.364,-0.024 0.332,-0.009C0.301,0.005 0.268,0.012 0.235,0.012ZM0.27,-0.078C0.294,-0.078 0.318,-0.084 0.342,-0.094C0.365,-0.105 0.388,-0.12 0.41,-0.138L0.41,-0.242C0.351,-0.238 0.305,-0.231 0.272,-0.222C0.239,-0.213 0.216,-0.202 0.202,-0.188C0.189,-0.174 0.182,-0.159 0.182,-0.141C0.182,-0.127 0.186,-0.115 0.194,-0.105C0.202,-0.096 0.212,-0.089 0.225,-0.085C0.239,-0.081 0.253,-0.078 0.27,-0.078Z" style="fill-rule:nonzero;"/>
            </g>
            <g transform="matrix(88,0,0,88,703.40224,1094.139)">
                <path d="M0.303,0.012C0.257,0.012 0.213,0.004 0.171,-0.011C0.129,-0.026 0.092,-0.044 0.062,-0.064L0.112,-0.137C0.142,-0.118 0.173,-0.102 0.207,-0.091C0.241,-0.08 0.278,-0.075 0.318,-0.075C0.352,-0.075 0.377,-0.081 0.394,-0.092C0.41,-0.104 0.418,-0.118 0.418,-0.134C0.418,-0.142 0.417,-0.149 0.413,-0.156C0.409,-0.162 0.403,-0.169 0.393,-0.174C0.384,-0.18 0.37,-0.185 0.352,-0.191C0.334,-0.196 0.311,-0.202 0.282,-0.208C0.217,-0.222 0.169,-0.241 0.138,-0.265C0.108,-0.289 0.092,-0.319 0.092,-0.356C0.092,-0.399 0.111,-0.435 0.148,-0.462C0.186,-0.489 0.239,-0.503 0.308,-0.503C0.349,-0.503 0.387,-0.497 0.422,-0.483C0.458,-0.47 0.488,-0.455 0.513,-0.438L0.46,-0.367C0.437,-0.383 0.411,-0.395 0.383,-0.404C0.355,-0.412 0.327,-0.416 0.298,-0.416C0.276,-0.416 0.259,-0.414 0.245,-0.409C0.232,-0.404 0.223,-0.398 0.216,-0.39C0.21,-0.381 0.207,-0.372 0.207,-0.362C0.207,-0.345 0.217,-0.332 0.237,-0.323C0.257,-0.314 0.29,-0.305 0.335,-0.295C0.388,-0.283 0.428,-0.271 0.457,-0.257C0.486,-0.242 0.506,-0.226 0.517,-0.208C0.528,-0.189 0.533,-0.167 0.533,-0.14C0.533,-0.112 0.524,-0.087 0.507,-0.064C0.489,-0.041 0.463,-0.022 0.429,-0.009C0.395,0.005 0.353,0.012 0.303,0.012Z" style="fill-rule:nonzero;"/>
            </g>
            <g transform="matrix(88,0,0,88,756.201434,1094.139)">
                <path d="M0.33,0.012C0.28,0.012 0.234,0.002 0.194,-0.018C0.153,-0.039 0.121,-0.068 0.097,-0.107C0.073,-0.145 0.061,-0.192 0.061,-0.246C0.061,-0.3 0.073,-0.345 0.097,-0.384C0.121,-0.422 0.152,-0.452 0.191,-0.472C0.23,-0.493 0.271,-0.503 0.315,-0.503C0.363,-0.503 0.405,-0.493 0.439,-0.473C0.472,-0.453 0.498,-0.426 0.516,-0.391C0.534,-0.356 0.542,-0.316 0.542,-0.27C0.542,-0.259 0.542,-0.248 0.541,-0.237C0.54,-0.227 0.539,-0.218 0.537,-0.212L0.144,-0.212L0.144,-0.294L0.463,-0.294L0.441,-0.268C0.44,-0.317 0.43,-0.353 0.408,-0.378C0.387,-0.402 0.357,-0.414 0.318,-0.414C0.291,-0.414 0.267,-0.408 0.245,-0.395C0.223,-0.383 0.206,-0.364 0.193,-0.339C0.181,-0.314 0.174,-0.283 0.174,-0.246C0.174,-0.208 0.181,-0.177 0.196,-0.152C0.21,-0.127 0.23,-0.108 0.256,-0.096C0.281,-0.084 0.311,-0.077 0.345,-0.077C0.371,-0.077 0.395,-0.081 0.417,-0.088C0.439,-0.095 0.461,-0.105 0.483,-0.118L0.522,-0.046C0.496,-0.029 0.467,-0.015 0.434,-0.004C0.401,0.007 0.366,0.012 0.33,0.012Z" style="fill-rule:nonzero;"/>
            </g>
            <g transform="matrix(88,0,0,88,809.000628,1094.139)">
            </g>
            <g transform="matrix(88,0,0,88,861.799823,1094.139)">
                <path d="M0.344,0.012C0.293,0.012 0.247,0.002 0.206,-0.018C0.165,-0.039 0.133,-0.068 0.109,-0.106C0.085,-0.145 0.073,-0.191 0.073,-0.245C0.073,-0.3 0.086,-0.346 0.112,-0.385C0.138,-0.423 0.172,-0.453 0.214,-0.473C0.256,-0.493 0.302,-0.503 0.352,-0.503C0.392,-0.503 0.427,-0.497 0.458,-0.483C0.488,-0.47 0.514,-0.454 0.534,-0.434L0.479,-0.362C0.46,-0.377 0.44,-0.389 0.421,-0.397C0.401,-0.405 0.38,-0.409 0.358,-0.409C0.326,-0.409 0.297,-0.402 0.271,-0.389C0.246,-0.375 0.227,-0.356 0.213,-0.331C0.199,-0.307 0.192,-0.278 0.192,-0.245C0.192,-0.212 0.198,-0.184 0.212,-0.159C0.226,-0.135 0.245,-0.116 0.27,-0.102C0.294,-0.089 0.322,-0.082 0.355,-0.082C0.383,-0.082 0.408,-0.087 0.432,-0.098C0.455,-0.109 0.476,-0.121 0.495,-0.136L0.543,-0.062C0.515,-0.038 0.484,-0.02 0.449,-0.007C0.414,0.006 0.38,0.012 0.344,0.012Z" style="fill-rule:nonzero;"/>
            </g>
            <g transform="matrix(88,0,0,88,914.599017,1094.139)">
                <path d="M0.3,0.012C0.257,0.012 0.216,0.002 0.179,-0.018C0.142,-0.039 0.111,-0.068 0.088,-0.106C0.065,-0.145 0.053,-0.191 0.053,-0.245C0.053,-0.3 0.065,-0.346 0.088,-0.385C0.111,-0.423 0.142,-0.453 0.179,-0.473C0.216,-0.493 0.257,-0.503 0.3,-0.503C0.343,-0.503 0.384,-0.493 0.421,-0.473C0.458,-0.453 0.489,-0.423 0.512,-0.385C0.535,-0.346 0.547,-0.3 0.547,-0.245C0.547,-0.191 0.535,-0.145 0.512,-0.106C0.489,-0.068 0.458,-0.039 0.421,-0.018C0.384,0.002 0.343,0.012 0.3,0.012ZM0.3,-0.082C0.327,-0.082 0.35,-0.089 0.369,-0.102C0.388,-0.116 0.403,-0.135 0.413,-0.159C0.423,-0.184 0.428,-0.212 0.428,-0.245C0.428,-0.278 0.423,-0.307 0.413,-0.331C0.403,-0.356 0.388,-0.375 0.369,-0.389C0.35,-0.402 0.327,-0.409 0.3,-0.409C0.273,-0.409 0.25,-0.402 0.231,-0.389C0.212,-0.375 0.197,-0.356 0.187,-0.331C0.177,-0.307 0.172,-0.278 0.172,-0.245C0.172,-0.212 0.177,-0.184 0.187,-0.159C0.197,-0.135 0.212,-0.116 0.231,-0.102C0.25,-0.089 0.273,-0.082 0.3,-0.082Z" style="fill-rule:nonzero;"/>
            </g>
            <g transform="matrix(88,0,0,88,967.398211,1094.139)">
                <path d="M0.082,-0L0.082,-0.491L0.177,-0.491L0.186,-0.417L0.19,-0.417C0.213,-0.441 0.239,-0.461 0.268,-0.478C0.296,-0.495 0.329,-0.503 0.367,-0.503C0.423,-0.503 0.465,-0.486 0.492,-0.451C0.518,-0.416 0.532,-0.367 0.532,-0.304L0.532,-0L0.416,-0L0.416,-0.289C0.416,-0.329 0.409,-0.358 0.395,-0.376C0.381,-0.395 0.357,-0.404 0.324,-0.404C0.3,-0.404 0.279,-0.399 0.26,-0.387C0.241,-0.375 0.221,-0.358 0.198,-0.335L0.198,-0L0.082,-0Z" style="fill-rule:nonzero;"/>
            </g>
            <g transform="matrix(88,0,0,88,1020.197406,1094.139)">
                <path d="M0.082,-0L0.082,-0.491L0.177,-0.491L0.186,-0.417L0.19,-0.417C0.213,-0.441 0.239,-0.461 0.268,-0.478C0.296,-0.495 0.329,-0.503 0.367,-0.503C0.423,-0.503 0.465,-0.486 0.492,-0.451C0.518,-0.416 0.532,-0.367 0.532,-0.304L0.532,-0L0.416,-0L0.416,-0.289C0.416,-0.329 0.409,-0.358 0.395,-0.376C0.381,-0.395 0.357,-0.404 0.324,-0.404C0.3,-0.404 0.279,-0.399 0.26,-0.387C0.241,-0.375 0.221,-0.358 0.198,-0.335L0.198,-0L0.082,-0Z" style="fill-rule:nonzero;"/>
            </g>
            <g transform="matrix(88,0,0,88,1072.9966,1094.139)">
                <path d="M0.33,0.012C0.28,0.012 0.234,0.002 0.194,-0.018C0.153,-0.039 0.121,-0.068 0.097,-0.107C0.073,-0.145 0.061,-0.192 0.061,-0.246C0.061,-0.3 0.073,-0.345 0.097,-0.384C0.121,-0.422 0.152,-0.452 0.191,-0.472C0.23,-0.493 0.271,-0.503 0.315,-0.503C0.363,-0.503 0.405,-0.493 0.439,-0.473C0.472,-0.453 0.498,-0.426 0.516,-0.391C0.534,-0.356 0.542,-0.316 0.542,-0.27C0.542,-0.259 0.542,-0.248 0.541,-0.237C0.54,-0.227 0.539,-0.218 0.537,-0.212L0.144,-0.212L0.144,-0.294L0.463,-0.294L0.441,-0.268C0.44,-0.317 0.43,-0.353 0.408,-0.378C0.387,-0.402 0.357,-0.414 0.318,-0.414C0.291,-0.414 0.267,-0.408 0.245,-0.395C0.223,-0.383 0.206,-0.364 0.193,-0.339C0.181,-0.314 0.174,-0.283 0.174,-0.246C0.174,-0.208 0.181,-0.177 0.196,-0.152C0.21,-0.127 0.23,-0.108 0.256,-0.096C0.281,-0.084 0.311,-0.077 0.345,-0.077C0.371,-0.077 0.395,-0.081 0.417,-0.088C0.439,-0.095 0.461,-0.105 0.483,-0.118L0.522,-0.046C0.496,-0.029 0.467,-0.015 0.434,-0.004C0.401,0.007 0.366,0.012 0.33,0.012Z" style="fill-rule:nonzero;"/>
            </g>
            <g transform="matrix(88,0,0,88,1125.795794,1094.139)">
                <path d="M0.344,0.012C0.293,0.012 0.247,0.002 0.206,-0.018C0.165,-0.039 0.133,-0.068 0.109,-0.106C0.085,-0.145 0.073,-0.191 0.073,-0.245C0.073,-0.3 0.086,-0.346 0.112,-0.385C0.138,-0.423 0.172,-0.453 0.214,-0.473C0.256,-0.493 0.302,-0.503 0.352,-0.503C0.392,-0.503 0.427,-0.497 0.458,-0.483C0.488,-0.47 0.514,-0.454 0.534,-0.434L0.479,-0.362C0.46,-0.377 0.44,-0.389 0.421,-0.397C0.401,-0.405 0.38,-0.409 0.358,-0.409C0.326,-0.409 0.297,-0.402 0.271,-0.389C0.246,-0.375 0.227,-0.356 0.213,-0.331C0.199,-0.307 0.192,-0.278 0.192,-0.245C0.192,-0.212 0.198,-0.184 0.212,-0.159C0.226,-0.135 0.245,-0.116 0.27,-0.102C0.294,-0.089 0.322,-0.082 0.355,-0.082C0.383,-0.082 0.408,-0.087 0.432,-0.098C0.455,-0.109 0.476,-0.121 0.495,-0.136L0.543,-0.062C0.515,-0.038 0.484,-0.02 0.449,-0.007C0.414,0.006 0.38,0.012 0.344,0.012Z" style="fill-rule:nonzero;"/>
            </g>
            <g transform="matrix(88,0,0,88,1178.594989,1094.139)">
                <path d="M0.391,0.012C0.341,0.012 0.301,0.003 0.272,-0.014C0.243,-0.032 0.222,-0.057 0.209,-0.088C0.196,-0.119 0.19,-0.156 0.19,-0.197L0.19,-0.4L0.059,-0.4L0.059,-0.486L0.195,-0.491L0.21,-0.645L0.305,-0.645L0.305,-0.491L0.529,-0.491L0.529,-0.4L0.305,-0.4L0.305,-0.198C0.305,-0.171 0.309,-0.149 0.316,-0.131C0.323,-0.114 0.335,-0.101 0.352,-0.092C0.369,-0.084 0.391,-0.08 0.418,-0.08C0.439,-0.08 0.459,-0.081 0.476,-0.085C0.493,-0.089 0.51,-0.093 0.526,-0.099L0.548,-0.016C0.526,-0.009 0.502,-0.002 0.477,0.004C0.452,0.009 0.423,0.012 0.391,0.012Z" style="fill-rule:nonzero;"/>
            </g>
            <g transform="matrix(88,0,0,88,1231.394183,1094.139)">
            </g>
            <g transform="matrix(88,0,0,88,492.205462,1204.755)">
                <path d="M0.391,0.012C0.341,0.012 0.301,0.003 0.272,-0.014C0.243,-0.032 0.222,-0.057 0.209,-0.088C0.196,-0.119 0.19,-0.156 0.19,-0.197L0.19,-0.4L0.059,-0.4L0.059,-0.486L0.195,-0.491L0.21,-0.645L0.305,-0.645L0.305,-0.491L0.529,-0.491L0.529,-0.4L0.305,-0.4L0.305,-0.198C0.305,-0.171 0.309,-0.149 0.316,-0.131C0.323,-0.114 0.335,-0.101 0.352,-0.092C0.369,-0.084 0.391,-0.08 0.418,-0.08C0.439,-0.08 0.459,-0.081 0.476,-0.085C0.493,-0.089 0.51,-0.093 0.526,-0.099L0.548,-0.016C0.526,-0.009 0.502,-0.002 0.477,0.004C0.452,0.009 0.423,0.012 0.391,0.012Z" style="fill-rule:nonzero;"/>
            </g>
            <g transform="matrix(88,0,0,88,545.004657,1204.755)">
                <path d="M0.3,0.012C0.257,0.012 0.216,0.002 0.179,-0.018C0.142,-0.039 0.111,-0.068 0.088,-0.106C0.065,-0.145 0.053,-0.191 0.053,-0.245C0.053,-0.3 0.065,-0.346 0.088,-0.385C0.111,-0.423 0.142,-0.453 0.179,-0.473C0.216,-0.493 0.257,-0.503 0.3,-0.503C0.343,-0.503 0.384,-0.493 0.421,-0.473C0.458,-0.453 0.489,-0.423 0.512,-0.385C0.535,-0.346 0.547,-0.3 0.547,-0.245C0.547,-0.191 0.535,-0.145 0.512,-0.106C0.489,-0.068 0.458,-0.039 0.421,-0.018C0.384,0.002 0.343,0.012 0.3,0.012ZM0.3,-0.082C0.327,-0.082 0.35,-0.089 0.369,-0.102C0.388,-0.116 0.403,-0.135 0.413,-0.159C0.423,-0.184 0.428,-0.212 0.428,-0.245C0.428,-0.278 0.423,-0.307 0.413,-0.331C0.403,-0.356 0.388,-0.375 0.369,-0.389C0.35,-0.402 0.327,-0.409 0.3,-0.409C0.273,-0.409 0.25,-0.402 0.231,-0.389C0.212,-0.375 0.197,-0.356 0.187,-0.331C0.177,-0.307 0.172,-0.278 0.172,-0.245C0.172,-0.212 0.177,-0.184 0.187,-0.159C0.197,-0.135 0.212,-0.116 0.231,-0.102C0.25,-0.089 0.273,-0.082 0.3,-0.082Z" style="fill-rule:nonzero;"/>
            </g>
            <g transform="matrix(88,0,0,88,597.803851,1204.755)">
            </g>
            <g transform="matrix(88,0,0,88,650.603045,1204.755)">
                <path d="M0.391,0.012C0.341,0.012 0.301,0.003 0.272,-0.014C0.243,-0.032 0.222,-0.057 0.209,-0.088C0.196,-0.119 0.19,-0.156 0.19,-0.197L0.19,-0.4L0.059,-0.4L0.059,-0.486L0.195,-0.491L0.21,-0.645L0.305,-0.645L0.305,-0.491L0.529,-0.491L0.529,-0.4L0.305,-0.4L0.305,-0.198C0.305,-0.171 0.309,-0.149 0.316,-0.131C0.323,-0.114 0.335,-0.101 0.352,-0.092C0.369,-0.084 0.391,-0.08 0.418,-0.08C0.439,-0.08 0.459,-0.081 0.476,-0.085C0.493,-0.089 0.51,-0.093 0.526,-0.099L0.548,-0.016C0.526,-0.009 0.502,-0.002 0.477,0.004C0.452,0.009 0.423,0.012 0.391,0.012Z" style="fill-rule:nonzero;"/>
            </g>
            <g transform="matrix(88,0,0,88,703.40224,1204.755)">
                <path d="M0.082,-0L0.082,-0.706L0.198,-0.706L0.198,-0.524L0.191,-0.419L0.194,-0.419C0.216,-0.442 0.24,-0.462 0.269,-0.478C0.297,-0.495 0.33,-0.503 0.367,-0.503C0.424,-0.503 0.465,-0.486 0.492,-0.451C0.518,-0.416 0.532,-0.367 0.532,-0.304L0.532,-0L0.416,-0L0.416,-0.289C0.416,-0.329 0.409,-0.358 0.395,-0.376C0.381,-0.395 0.357,-0.404 0.324,-0.404C0.3,-0.404 0.279,-0.399 0.26,-0.387C0.241,-0.375 0.221,-0.358 0.198,-0.335L0.198,-0L0.082,-0Z" style="fill-rule:nonzero;"/>
            </g>
            <g transform="matrix(88,0,0,88,756.201434,1204.755)">
                <path d="M0.33,0.012C0.28,0.012 0.234,0.002 0.194,-0.018C0.153,-0.039 0.121,-0.068 0.097,-0.107C0.073,-0.145 0.061,-0.192 0.061,-0.246C0.061,-0.3 0.073,-0.345 0.097,-0.384C0.121,-0.422 0.152,-0.452 0.191,-0.472C0.23,-0.493 0.271,-0.503 0.315,-0.503C0.363,-0.503 0.405,-0.493 0.439,-0.473C0.472,-0.453 0.498,-0.426 0.516,-0.391C0.534,-0.356 0.542,-0.316 0.542,-0.27C0.542,-0.259 0.542,-0.248 0.541,-0.237C0.54,-0.227 0.539,-0.218 0.537,-0.212L0.144,-0.212L0.144,-0.294L0.463,-0.294L0.441,-0.268C0.44,-0.317 0.43,-0.353 0.408,-0.378C0.387,-0.402 0.357,-0.414 0.318,-0.414C0.291,-0.414 0.267,-0.408 0.245,-0.395C0.223,-0.383 0.206,-0.364 0.193,-0.339C0.181,-0.314 0.174,-0.283 0.174,-0.246C0.174,-0.208 0.181,-0.177 0.196,-0.152C0.21,-0.127 0.23,-0.108 0.256,-0.096C0.281,-0.084 0.311,-0.077 0.345,-0.077C0.371,-0.077 0.395,-0.081 0.417,-0.088C0.439,-0.095 0.461,-0.105 0.483,-0.118L0.522,-0.046C0.496,-0.029 0.467,-0.015 0.434,-0.004C0.401,0.007 0.366,0.012 0.33,0.012Z" style="fill-rule:nonzero;"/>
            </g>
            <g transform="matrix(88,0,0,88,809.000628,1204.755)">
            </g>
            <g transform="matrix(88,0,0,88,861.799823,1204.755)">
                <path d="M0.082,-0L0.082,-0.491L0.177,-0.491L0.186,-0.417L0.19,-0.417C0.213,-0.441 0.239,-0.461 0.268,-0.478C0.296,-0.495 0.329,-0.503 0.367,-0.503C0.423,-0.503 0.465,-0.486 0.492,-0.451C0.518,-0.416 0.532,-0.367 0.532,-0.304L0.532,-0L0.416,-0L0.416,-0.289C0.416,-0.329 0.409,-0.358 0.395,-0.376C0.381,-0.395 0.357,-0.404 0.324,-0.404C0.3,-0.404 0.279,-0.399 0.26,-0.387C0.241,-0.375 0.221,-0.358 0.198,-0.335L0.198,-0L0.082,-0Z" style="fill-rule:nonzero;"/>
            </g>
            <g transform="matrix(88,0,0,88,914.599017,1204.755)">
                <path d="M0.33,0.012C0.28,0.012 0.234,0.002 0.194,-0.018C0.153,-0.039 0.121,-0.068 0.097,-0.107C0.073,-0.145 0.061,-0.192 0.061,-0.246C0.061,-0.3 0.073,-0.345 0.097,-0.384C0.121,-0.422 0.152,-0.452 0.191,-0.472C0.23,-0.493 0.271,-0.503 0.315,-0.503C0.363,-0.503 0.405,-0.493 0.439,-0.473C0.472,-0.453 0.498,-0.426 0.516,-0.391C0.534,-0.356 0.542,-0.316 0.542,-0.27C0.542,-0.259 0.542,-0.248 0.541,-0.237C0.54,-0.227 0.539,-0.218 0.537,-0.212L0.144,-0.212L0.144,-0.294L0.463,-0.294L0.441,-0.268C0.44,-0.317 0.43,-0.353 0.408,-0.378C0.387,-0.402 0.357,-0.414 0.318,-0.414C0.291,-0.414 0.267,-0.408 0.245,-0.395C0.223,-0.383 0.206,-0.364 0.193,-0.339C0.181,-0.314 0.174,-0.283 0.174,-0.246C0.174,-0.208 0.181,-0.177 0.196,-0.152C0.21,-0.127 0.23,-0.108 0.256,-0.096C0.281,-0.084 0.311,-0.077 0.345,-0.077C0.371,-0.077 0.395,-0.081 0.417,-0.088C0.439,-0.095 0.461,-0.105 0.483,-0.118L0.522,-0.046C0.496,-0.029 0.467,-0.015 0.434,-0.004C0.401,0.007 0.366,0.012 0.33,0.012Z" style="fill-rule:nonzero;"/>
            </g>
            <g transform="matrix(88,0,0,88,967.398211,1204.755)">
                <path d="M0.391,0.012C0.341,0.012 0.301,0.003 0.272,-0.014C0.243,-0.032 0.222,-0.057 0.209,-0.088C0.196,-0.119 0.19,-0.156 0.19,-0.197L0.19,-0.4L0.059,-0.4L0.059,-0.486L0.195,-0.491L0.21,-0.645L0.305,-0.645L0.305,-0.491L0.529,-0.491L0.529,-0.4L0.305,-0.4L0.305,-0.198C0.305,-0.171 0.309,-0.149 0.316,-0.131C0.323,-0.114 0.335,-0.101 0.352,-0.092C0.369,-0.084 0.391,-0.08 0.418,-0.08C0.439,-0.08 0.459,-0.081 0.476,-0.085C0.493,-0.089 0.51,-0.093 0.526,-0.099L0.548,-0.016C0.526,-0.009 0.502,-0.002 0.477,0.004C0.452,0.009 0.423,0.012 0.391,0.012Z" style="fill-rule:nonzero;"/>
            </g>
            <g transform="matrix(88,0,0,88,1020.197406,1204.755)">
                <path d="M0.099,-0L0.006,-0.491L0.119,-0.491L0.163,-0.236C0.167,-0.212 0.17,-0.189 0.173,-0.166C0.176,-0.143 0.179,-0.119 0.182,-0.095L0.185,-0.095C0.188,-0.119 0.192,-0.143 0.197,-0.166C0.201,-0.189 0.206,-0.212 0.211,-0.236L0.256,-0.443L0.351,-0.443L0.395,-0.236C0.4,-0.212 0.406,-0.189 0.411,-0.166C0.416,-0.143 0.42,-0.119 0.423,-0.095L0.427,-0.095C0.431,-0.119 0.434,-0.143 0.436,-0.166C0.438,-0.189 0.441,-0.212 0.445,-0.236L0.487,-0.491L0.594,-0.491L0.504,-0L0.364,-0L0.323,-0.196C0.32,-0.216 0.316,-0.237 0.313,-0.261C0.309,-0.285 0.306,-0.312 0.302,-0.342L0.298,-0.342C0.295,-0.316 0.292,-0.291 0.289,-0.268C0.285,-0.244 0.282,-0.22 0.278,-0.196L0.238,-0L0.099,-0Z" style="fill-rule:nonzero;"/>
            </g>
            <g transform="matrix(88,0,0,88,1072.9966,1204.755)">
                <path d="M0.3,0.012C0.257,0.012 0.216,0.002 0.179,-0.018C0.142,-0.039 0.111,-0.068 0.088,-0.106C0.065,-0.145 0.053,-0.191 0.053,-0.245C0.053,-0.3 0.065,-0.346 0.088,-0.385C0.111,-0.423 0.142,-0.453 0.179,-0.473C0.216,-0.493 0.257,-0.503 0.3,-0.503C0.343,-0.503 0.384,-0.493 0.421,-0.473C0.458,-0.453 0.489,-0.423 0.512,-0.385C0.535,-0.346 0.547,-0.3 0.547,-0.245C0.547,-0.191 0.535,-0.145 0.512,-0.106C0.489,-0.068 0.458,-0.039 0.421,-0.018C0.384,0.002 0.343,0.012 0.3,0.012ZM0.3,-0.082C0.327,-0.082 0.35,-0.089 0.369,-0.102C0.388,-0.116 0.403,-0.135 0.413,-0.159C0.423,-0.184 0.428,-0.212 0.428,-0.245C0.428,-0.278 0.423,-0.307 0.413,-0.331C0.403,-0.356 0.388,-0.375 0.369,-0.389C0.35,-0.402 0.327,-0.409 0.3,-0.409C0.273,-0.409 0.25,-0.402 0.231,-0.389C0.212,-0.375 0.197,-0.356 0.187,-0.331C0.177,-0.307 0.172,-0.278 0.172,-0.245C0.172,-0.212 0.177,-0.184 0.187,-0.159C0.197,-0.135 0.212,-0.116 0.231,-0.102C0.25,-0.089 0.273,-0.082 0.3,-0.082Z" style="fill-rule:nonzero;"/>
            </g>
            <g transform="matrix(88,0,0,88,1125.795794,1204.755)">
                <path d="M0.13,-0L0.13,-0.491L0.225,-0.491L0.235,-0.38L0.238,-0.38C0.263,-0.42 0.293,-0.45 0.33,-0.471C0.366,-0.493 0.405,-0.503 0.447,-0.503C0.467,-0.503 0.484,-0.502 0.499,-0.498C0.513,-0.495 0.528,-0.49 0.542,-0.483L0.518,-0.386C0.502,-0.391 0.488,-0.395 0.476,-0.398C0.463,-0.4 0.448,-0.401 0.429,-0.401C0.396,-0.401 0.363,-0.391 0.331,-0.372C0.299,-0.352 0.271,-0.319 0.246,-0.271L0.246,-0L0.13,-0Z" style="fill-rule:nonzero;"/>
            </g>
            <g transform="matrix(88,0,0,88,1178.594989,1204.755)">
                <path d="M0.09,-0L0.09,-0.706L0.206,-0.706L0.206,-0.264L0.21,-0.264L0.431,-0.491L0.559,-0.491L0.206,-0.128L0.206,-0L0.09,-0ZM0.454,-0L0.287,-0.242L0.354,-0.314L0.58,-0L0.454,-0Z" style="fill-rule:nonzero;"/>
            </g>
            <g transform="matrix(88,0,0,88,1231.394183,1204.755)">
            </g>
            <g transform="matrix(88,0,0,88,624.203448,1315.371)">
                <path d="M0.391,0.012C0.341,0.012 0.301,0.003 0.272,-0.014C0.243,-0.032 0.222,-0.057 0.209,-0.088C0.196,-0.119 0.19,-0.156 0.19,-0.197L0.19,-0.4L0.059,-0.4L0.059,-0.486L0.195,-0.491L0.21,-0.645L0.305,-0.645L0.305,-0.491L0.529,-0.491L0.529,-0.4L0.305,-0.4L0.305,-0.198C0.305,-0.171 0.309,-0.149 0.316,-0.131C0.323,-0.114 0.335,-0.101 0.352,-0.092C0.369,-0.084 0.391,-0.08 0.418,-0.08C0.439,-0.08 0.459,-0.081 0.476,-0.085C0.493,-0.089 0.51,-0.093 0.526,-0.099L0.548,-0.016C0.526,-0.009 0.502,-0.002 0.477,0.004C0.452,0.009 0.423,0.012 0.391,0.012Z" style="fill-rule:nonzero;"/>
            </g>
            <g transform="matrix(88,0,0,88,677.002643,1315.371)">
                <path d="M0.3,0.012C0.257,0.012 0.216,0.002 0.179,-0.018C0.142,-0.039 0.111,-0.068 0.088,-0.106C0.065,-0.145 0.053,-0.191 0.053,-0.245C0.053,-0.3 0.065,-0.346 0.088,-0.385C0.111,-0.423 0.142,-0.453 0.179,-0.473C0.216,-0.493 0.257,-0.503 0.3,-0.503C0.343,-0.503 0.384,-0.493 0.421,-0.473C0.458,-0.453 0.489,-0.423 0.512,-0.385C0.535,-0.346 0.547,-0.3 0.547,-0.245C0.547,-0.191 0.535,-0.145 0.512,-0.106C0.489,-0.068 0.458,-0.039 0.421,-0.018C0.384,0.002 0.343,0.012 0.3,0.012ZM0.3,-0.082C0.327,-0.082 0.35,-0.089 0.369,-0.102C0.388,-0.116 0.403,-0.135 0.413,-0.159C0.423,-0.184 0.428,-0.212 0.428,-0.245C0.428,-0.278 0.423,-0.307 0.413,-0.331C0.403,-0.356 0.388,-0.375 0.369,-0.389C0.35,-0.402 0.327,-0.409 0.3,-0.409C0.273,-0.409 0.25,-0.402 0.231,-0.389C0.212,-0.375 0.197,-0.356 0.187,-0.331C0.177,-0.307 0.172,-0.278 0.172,-0.245C0.172,-0.212 0.177,-0.184 0.187,-0.159C0.197,-0.135 0.212,-0.116 0.231,-0.102C0.25,-0.089 0.273,-0.082 0.3,-0.082Z" style="fill-rule:nonzero;"/>
            </g>
            <g transform="matrix(88,0,0,88,729.801837,1315.371)">
            </g>
            <g transform="matrix(88,0,0,88,782.601031,1315.371)">
                <path d="M0.235,0.012C0.203,0.012 0.175,0.006 0.15,-0.006C0.126,-0.018 0.106,-0.035 0.092,-0.057C0.078,-0.079 0.071,-0.104 0.071,-0.132C0.071,-0.187 0.097,-0.229 0.149,-0.258C0.202,-0.287 0.289,-0.305 0.41,-0.314C0.409,-0.332 0.404,-0.349 0.396,-0.363C0.388,-0.378 0.375,-0.389 0.358,-0.398C0.342,-0.406 0.32,-0.41 0.293,-0.41C0.275,-0.41 0.256,-0.408 0.238,-0.403C0.22,-0.399 0.202,-0.392 0.184,-0.384C0.167,-0.376 0.149,-0.367 0.132,-0.358L0.09,-0.435C0.11,-0.447 0.132,-0.458 0.156,-0.468C0.18,-0.479 0.205,-0.487 0.232,-0.494C0.259,-0.5 0.286,-0.503 0.314,-0.503C0.36,-0.503 0.398,-0.495 0.429,-0.479C0.461,-0.462 0.485,-0.438 0.501,-0.407C0.517,-0.375 0.525,-0.336 0.525,-0.291L0.525,-0L0.431,-0L0.422,-0.061L0.419,-0.061C0.393,-0.041 0.364,-0.024 0.332,-0.009C0.301,0.005 0.268,0.012 0.235,0.012ZM0.27,-0.078C0.294,-0.078 0.318,-0.084 0.342,-0.094C0.365,-0.105 0.388,-0.12 0.41,-0.138L0.41,-0.242C0.351,-0.238 0.305,-0.231 0.272,-0.222C0.239,-0.213 0.216,-0.202 0.202,-0.188C0.189,-0.174 0.182,-0.159 0.182,-0.141C0.182,-0.127 0.186,-0.115 0.194,-0.105C0.202,-0.096 0.212,-0.089 0.225,-0.085C0.239,-0.081 0.253,-0.078 0.27,-0.078Z" style="fill-rule:nonzero;"/>
            </g>
            <g transform="matrix(88,0,0,88,835.400226,1315.371)">
                <path d="M0.344,0.012C0.293,0.012 0.247,0.002 0.206,-0.018C0.165,-0.039 0.133,-0.068 0.109,-0.106C0.085,-0.145 0.073,-0.191 0.073,-0.245C0.073,-0.3 0.086,-0.346 0.112,-0.385C0.138,-0.423 0.172,-0.453 0.214,-0.473C0.256,-0.493 0.302,-0.503 0.352,-0.503C0.392,-0.503 0.427,-0.497 0.458,-0.483C0.488,-0.47 0.514,-0.454 0.534,-0.434L0.479,-0.362C0.46,-0.377 0.44,-0.389 0.421,-0.397C0.401,-0.405 0.38,-0.409 0.358,-0.409C0.326,-0.409 0.297,-0.402 0.271,-0.389C0.246,-0.375 0.227,-0.356 0.213,-0.331C0.199,-0.307 0.192,-0.278 0.192,-0.245C0.192,-0.212 0.198,-0.184 0.212,-0.159C0.226,-0.135 0.245,-0.116 0.27,-0.102C0.294,-0.089 0.322,-0.082 0.355,-0.082C0.383,-0.082 0.408,-0.087 0.432,-0.098C0.455,-0.109 0.476,-0.121 0.495,-0.136L0.543,-0.062C0.515,-0.038 0.484,-0.02 0.449,-0.007C0.414,0.006 0.38,0.012 0.344,0.012Z" style="fill-rule:nonzero;"/>
            </g>
            <g transform="matrix(88,0,0,88,888.19942,1315.371)">
                <path d="M0.344,0.012C0.293,0.012 0.247,0.002 0.206,-0.018C0.165,-0.039 0.133,-0.068 0.109,-0.106C0.085,-0.145 0.073,-0.191 0.073,-0.245C0.073,-0.3 0.086,-0.346 0.112,-0.385C0.138,-0.423 0.172,-0.453 0.214,-0.473C0.256,-0.493 0.302,-0.503 0.352,-0.503C0.392,-0.503 0.427,-0.497 0.458,-0.483C0.488,-0.47 0.514,-0.454 0.534,-0.434L0.479,-0.362C0.46,-0.377 0.44,-0.389 0.421,-0.397C0.401,-0.405 0.38,-0.409 0.358,-0.409C0.326,-0.409 0.297,-0.402 0.271,-0.389C0.246,-0.375 0.227,-0.356 0.213,-0.331C0.199,-0.307 0.192,-0.278 0.192,-0.245C0.192,-0.212 0.198,-0.184 0.212,-0.159C0.226,-0.135 0.245,-0.116 0.27,-0.102C0.294,-0.089 0.322,-0.082 0.355,-0.082C0.383,-0.082 0.408,-0.087 0.432,-0.098C0.455,-0.109 0.476,-0.121 0.495,-0.136L0.543,-0.062C0.515,-0.038 0.484,-0.02 0.449,-0.007C0.414,0.006 0.38,0.012 0.344,0.012Z" style="fill-rule:nonzero;"/>
            </g>
            <g transform="matrix(88,0,0,88,940.998614,1315.371)">
                <path d="M0.33,0.012C0.28,0.012 0.234,0.002 0.194,-0.018C0.153,-0.039 0.121,-0.068 0.097,-0.107C0.073,-0.145 0.061,-0.192 0.061,-0.246C0.061,-0.3 0.073,-0.345 0.097,-0.384C0.121,-0.422 0.152,-0.452 0.191,-0.472C0.23,-0.493 0.271,-0.503 0.315,-0.503C0.363,-0.503 0.405,-0.493 0.439,-0.473C0.472,-0.453 0.498,-0.426 0.516,-0.391C0.534,-0.356 0.542,-0.316 0.542,-0.27C0.542,-0.259 0.542,-0.248 0.541,-0.237C0.54,-0.227 0.539,-0.218 0.537,-0.212L0.144,-0.212L0.144,-0.294L0.463,-0.294L0.441,-0.268C0.44,-0.317 0.43,-0.353 0.408,-0.378C0.387,-0.402 0.357,-0.414 0.318,-0.414C0.291,-0.414 0.267,-0.408 0.245,-0.395C0.223,-0.383 0.206,-0.364 0.193,-0.339C0.181,-0.314 0.174,-0.283 0.174,-0.246C0.174,-0.208 0.181,-0.177 0.196,-0.152C0.21,-0.127 0.23,-0.108 0.256,-0.096C0.281,-0.084 0.311,-0.077 0.345,-0.077C0.371,-0.077 0.395,-0.081 0.417,-0.088C0.439,-0.095 0.461,-0.105 0.483,-0.118L0.522,-0.046C0.496,-0.029 0.467,-0.015 0.434,-0.004C0.401,0.007 0.366,0.012 0.33,0.012Z" style="fill-rule:nonzero;"/>
            </g>
            <g transform="matrix(88,0,0,88,993.797809,1315.371)">
                <path d="M0.303,0.012C0.257,0.012 0.213,0.004 0.171,-0.011C0.129,-0.026 0.092,-0.044 0.062,-0.064L0.112,-0.137C0.142,-0.118 0.173,-0.102 0.207,-0.091C0.241,-0.08 0.278,-0.075 0.318,-0.075C0.352,-0.075 0.377,-0.081 0.394,-0.092C0.41,-0.104 0.418,-0.118 0.418,-0.134C0.418,-0.142 0.417,-0.149 0.413,-0.156C0.409,-0.162 0.403,-0.169 0.393,-0.174C0.384,-0.18 0.37,-0.185 0.352,-0.191C0.334,-0.196 0.311,-0.202 0.282,-0.208C0.217,-0.222 0.169,-0.241 0.138,-0.265C0.108,-0.289 0.092,-0.319 0.092,-0.356C0.092,-0.399 0.111,-0.435 0.148,-0.462C0.186,-0.489 0.239,-0.503 0.308,-0.503C0.349,-0.503 0.387,-0.497 0.422,-0.483C0.458,-0.47 0.488,-0.455 0.513,-0.438L0.46,-0.367C0.437,-0.383 0.411,-0.395 0.383,-0.404C0.355,-0.412 0.327,-0.416 0.298,-0.416C0.276,-0.416 0.259,-0.414 0.245,-0.409C0.232,-0.404 0.223,-0.398 0.216,-0.39C0.21,-0.381 0.207,-0.372 0.207,-0.362C0.207,-0.345 0.217,-0.332 0.237,-0.323C0.257,-0.314 0.29,-0.305 0.335,-0.295C0.388,-0.283 0.428,-0.271 0.457,-0.257C0.486,-0.242 0.506,-0.226 0.517,-0.208C0.528,-0.189 0.533,-0.167 0.533,-0.14C0.533,-0.112 0.524,-0.087 0.507,-0.064C0.489,-0.041 0.463,-0.022 0.429,-0.009C0.395,0.005 0.353,0.012 0.303,0.012Z" style="fill-rule:nonzero;"/>
            </g>
            <g transform="matrix(88,0,0,88,1046.597003,1315.371)">
                <path d="M0.303,0.012C0.257,0.012 0.213,0.004 0.171,-0.011C0.129,-0.026 0.092,-0.044 0.062,-0.064L0.112,-0.137C0.142,-0.118 0.173,-0.102 0.207,-0.091C0.241,-0.08 0.278,-0.075 0.318,-0.075C0.352,-0.075 0.377,-0.081 0.394,-0.092C0.41,-0.104 0.418,-0.118 0.418,-0.134C0.418,-0.142 0.417,-0.149 0.413,-0.156C0.409,-0.162 0.403,-0.169 0.393,-0.174C0.384,-0.18 0.37,-0.185 0.352,-0.191C0.334,-0.196 0.311,-0.202 0.282,-0.208C0.217,-0.222 0.169,-0.241 0.138,-0.265C0.108,-0.289 0.092,-0.319 0.092,-0.356C0.092,-0.399 0.111,-0.435 0.148,-0.462C0.186,-0.489 0.239,-0.503 0.308,-0.503C0.349,-0.503 0.387,-0.497 0.422,-0.483C0.458,-0.47 0.488,-0.455 0.513,-0.438L0.46,-0.367C0.437,-0.383 0.411,-0.395 0.383,-0.404C0.355,-0.412 0.327,-0.416 0.298,-0.416C0.276,-0.416 0.259,-0.414 0.245,-0.409C0.232,-0.404 0.223,-0.398 0.216,-0.39C0.21,-0.381 0.207,-0.372 0.207,-0.362C0.207,-0.345 0.217,-0.332 0.237,-0.323C0.257,-0.314 0.29,-0.305 0.335,-0.295C0.388,-0.283 0.428,-0.271 0.457,-0.257C0.486,-0.242 0.506,-0.226 0.517,-0.208C0.528,-0.189 0.533,-0.167 0.533,-0.14C0.533,-0.112 0.524,-0.087 0.507,-0.064C0.489,-0.041 0.463,-0.022 0.429,-0.009C0.395,0.005 0.353,0.012 0.303,0.012Z" style="fill-rule:nonzero;"/>
            </g>
            <g transform="matrix(88,0,0,88,1099.396197,1315.371)">
            </g>
        </g>
    </g>
</svg>
