<?xml version="1.0" encoding="UTF-8" standalone="no"?>
<!DOCTYPE svg PUBLIC "-//W3C//DTD SVG 1.1//EN" "http://www.w3.org/Graphics/SVG/1.1/DTD/svg11.dtd">
<svg width="100%" height="100%" viewBox="0 0 82 128" version="1.1" xmlns="http://www.w3.org/2000/svg" xmlns:xlink="http://www.w3.org/1999/xlink" xml:space="preserve" xmlns:serif="http://www.serif.com/" style="fill-rule:evenodd;clip-rule:evenodd;stroke-linejoin:round;stroke-miterlimit:2;">
    <g transform="matrix(0.322723,0,0,0.322723,-13.810945,-16.815484)">
        <g transform="matrix(4.166667,0,0,4.166667,-141.198502,-164.999201)">
            <path d="M99.699,107.214L99.699,102.204L94.689,102.204L94.689,97.195L89.679,97.195L89.679,92.185L84.669,92.185L84.669,87.175L79.659,87.175L79.659,82.165L74.649,82.165L74.649,77.155L69.639,77.155L69.639,72.145L64.629,72.145L64.629,67.135L59.619,67.135L59.619,62.125L54.609,62.125L54.609,57.115L49.599,57.115L49.599,52.105L44.589,52.105L44.589,137.275L54.609,137.275L54.609,132.265L59.619,132.265L59.619,127.255L64.629,127.255L64.629,122.244L69.639,122.244L69.639,132.265L74.649,132.265L74.649,142.285L79.659,142.285L79.659,147.295L89.679,147.295L89.679,142.285L94.689,142.285L94.689,132.265L89.679,132.265L89.679,122.244L84.669,122.244L84.669,117.234L104.709,117.234L104.709,107.214L99.699,107.214Z" style="fill:white;fill-rule:nonzero;"/>
        </g>
        <g transform="matrix(4.166667,0,0,4.166667,-141.198502,-164.999201)">
            <rect x="44.589" y="52.105" width="5.01" height="85.17" style="fill-rule:nonzero;"/>
        </g>
        <g transform="matrix(4.166667,0,0,4.166667,-141.198502,-164.999201)">
            <rect x="49.599" y="57.115" width="5.01" height="5.01" style="fill-rule:nonzero;"/>
        </g>
        <g transform="matrix(4.166667,0,0,4.166667,-141.198502,-164.999201)">
            <rect x="54.609" y="62.125" width="5.01" height="5.01" style="fill-rule:nonzero;"/>
        </g>
        <g transform="matrix(4.166667,0,0,4.166667,-141.198502,-164.999201)">
            <rect x="59.619" y="67.135" width="5.01" height="5.01" style="fill-rule:nonzero;"/>
        </g>
        <g transform="matrix(4.166667,0,0,4.166667,-141.198502,-164.999201)">
            <rect x="64.629" y="72.145" width="5.01" height="5.01" style="fill-rule:nonzero;"/>
        </g>
        <g transform="matrix(4.166667,0,0,4.166667,-141.198502,-164.999201)">
            <rect x="69.639" y="77.155" width="5.01" height="5.01" style="fill-rule:nonzero;"/>
        </g>
        <g transform="matrix(4.166667,0,0,4.166667,-141.198502,-164.999201)">
            <rect x="74.649" y="82.165" width="5.01" height="5.01" style="fill-rule:nonzero;"/>
        </g>
        <g transform="matrix(4.166667,0,0,4.166667,-141.198502,-164.999201)">
            <rect x="79.659" y="87.175" width="5.01" height="5.01" style="fill-rule:nonzero;"/>
        </g>
        <g transform="matrix(4.166667,0,0,4.166667,-141.198502,-164.999201)">
            <rect x="84.669" y="92.185" width="5.01" height="5.01" style="fill-rule:nonzero;"/>
        </g>
        <g transform="matrix(4.166667,0,0,4.166667,-141.198502,-164.999201)">
            <rect x="89.679" y="97.195" width="5.01" height="5.009" style="fill-rule:nonzero;"/>
        </g>
        <g transform="matrix(4.166667,0,0,4.166667,-141.198502,-164.999201)">
            <rect x="94.689" y="102.204" width="5.01" height="5.01" style="fill-rule:nonzero;"/>
        </g>
        <g transform="matrix(4.166667,0,0,4.166667,-141.198502,-164.999201)">
            <rect x="99.699" y="107.214" width="5.01" height="5.01" style="fill-rule:nonzero;"/>
        </g>
        <g transform="matrix(4.166667,0,0,4.166667,-141.198502,-164.999201)">
            <rect x="79.659" y="112.224" width="25.05" height="5.01" style="fill-rule:nonzero;"/>
        </g>
        <g transform="matrix(4.166667,0,0,4.166667,-141.198502,-164.999201)">
            <rect x="79.659" y="117.234" width="5.01" height="5.01" style="fill-rule:nonzero;"/>
        </g>
        <g transform="matrix(4.166667,0,0,4.166667,-141.198502,-164.999201)">
            <rect x="64.629" y="117.234" width="5.01" height="5.01" style="fill-rule:nonzero;"/>
        </g>
        <g transform="matrix(4.166667,0,0,4.166667,-141.198502,-164.999201)">
            <rect x="69.639" y="122.244" width="5.01" height="10.021" style="fill-rule:nonzero;"/>
        </g>
        <g transform="matrix(4.166667,0,0,4.166667,-141.198502,-164.999201)">
            <rect x="74.649" y="132.265" width="5.01" height="10.02" style="fill-rule:nonzero;"/>
        </g>
        <g transform="matrix(4.166667,0,0,4.166667,-141.198502,-164.999201)">
            <rect x="79.659" y="142.285" width="10.02" height="5.01" style="fill-rule:nonzero;"/>
        </g>
        <g transform="matrix(4.166667,0,0,4.166667,-141.198502,-164.999201)">
            <rect x="84.669" y="122.244" width="5.01" height="10.021" style="fill-rule:nonzero;"/>
        </g>
        <g transform="matrix(4.166667,0,0,4.166667,-141.198502,-164.999201)">
            <rect x="89.679" y="132.265" width="5.01" height="10.02" style="fill-rule:nonzero;"/>
        </g>
        <g transform="matrix(4.166667,0,0,4.166667,-141.198502,-164.999201)">
            <rect x="59.619" y="122.244" width="5.01" height="5.011" style="fill-rule:nonzero;"/>
        </g>
        <g transform="matrix(4.166667,0,0,4.166667,-141.198502,-164.999201)">
            <rect x="54.609" y="127.255" width="5.01" height="5.01" style="fill-rule:nonzero;"/>
        </g>
        <g transform="matrix(4.166667,0,0,4.166667,-141.198502,-164.999201)">
            <rect x="49.599" y="132.265" width="5.01" height="5.01" style="fill-rule:nonzero;"/>
        </g>
    </g>
</svg>
