<?xml version="1.0" encoding="UTF-8" standalone="no"?><!DOCTYPE svg PUBLIC "-//W3C//DTD SVG 1.1//EN" "http://www.w3.org/Graphics/SVG/1.1/DTD/svg11.dtd"><svg width="100%" height="100%" viewBox="0 0 520 520" version="1.1" xmlns="http://www.w3.org/2000/svg" xmlns:xlink="http://www.w3.org/1999/xlink" xml:space="preserve" xmlns:serif="http://www.serif.com/" style="fill-rule:evenodd;clip-rule:evenodd;stroke-linejoin:round;stroke-miterlimit:2;"><g id="Layer_1"><g><path d="M327.574,499.085c-31.11,4.808 -78.041,8.72 -121.807,-1.523c-65.738,-18.937 -64.233,-94.147 -57.013,-115.489c0,-0.016 22.249,20.72 34.731,0.109c15.615,-25.783 36.102,0 36.102,0c0,0 22.218,22.443 36.102,0c16.678,-26.954 36.102,0.044 36.102,0.044c0,0 18.586,23.104 35.706,0.149c1.191,-0.239 -0.35,112.495 0.076,116.711Zm-54.171,-31.651c8.789,0 15.913,-7.051 15.913,-15.749c0,-8.697 -7.124,-15.749 -15.913,-15.749c-8.789,0 -15.913,7.052 -15.913,15.749c0,8.699 7.124,15.749 15.913,15.749Zm-70.081,-18.806c13.676,0 24.744,-11.002 24.744,-24.551c0,-13.548 -11.068,-24.551 -24.744,-24.551c-13.676,0 -24.744,11.004 -24.744,24.551c0,13.549 11.068,24.551 24.744,24.551Zm0,-8.495c-8.963,0 -16.249,-7.177 -16.249,-16.056c0,-8.878 7.286,-16.056 16.249,-16.056c8.963,0 16.249,7.178 16.249,16.056c0,8.88 -7.286,16.056 -16.249,16.056Z" style="fill:#5dcd55;"/><path d="M346.693,-0l-0,514.9l-7.296,1.545c0,0 -65.417,13.859 -132.797,0.795l-0.07,-0.015c-31.071,-6.525 -54.117,-27.85 -67.035,-54.972c-17.799,-37.37 -16.073,-85.635 9.808,-119.756c16.028,-21.131 41.284,-37.068 77.181,-41.42c0.33,-37.216 -0.009,-177.392 -0.107,-214.714l-34.004,0l-0,-86.363l154.32,0Zm-18.405,86.02l-83.507,0.309c0.106,41.331 0.501,208.563 -0.03,223.464l-0.296,8.294l-8.28,0.56c-33.967,2.296 -57.705,15.853 -72.208,34.974c-21.76,28.688 -22.82,69.299 -7.855,100.719c10.476,21.994 28.948,39.546 54.147,44.863c50.513,9.776 99.881,3.534 118.029,0.558l-0,-413.739Zm-92.768,-18.063l0.034,-0l92.734,-0.343l-0,-49.21l-117.51,0l0,49.552l24.742,0Z" style="fill:#646464;"/><path d="M278.975,247.276c-13.676,0 -24.744,-11.002 -24.744,-24.551c0,-13.548 11.068,-24.551 24.744,-24.551c13.678,0 24.744,11.004 24.744,24.551c0,13.549 -11.066,24.551 -24.744,24.551Zm0,-8.495c8.964,0 16.249,-7.177 16.249,-16.056c0,-8.878 -7.285,-16.056 -16.249,-16.056c-8.963,0 -16.249,7.178 -16.249,16.056c0,8.88 7.286,16.056 16.249,16.056Z" style="fill:#5dcd55;"/><path d="M293.84,148.985c8.789,0 15.913,-7.052 15.913,-15.749c0,-8.699 -7.124,-15.749 -15.913,-15.749c-8.788,0 -15.913,7.051 -15.913,15.749c0,8.697 7.126,15.749 15.913,15.749Z" style="fill:#5dcd55;fill-rule:nonzero;"/><path d="M293.84,331.277c8.789,0 15.913,-7.051 15.913,-15.749c0,-8.699 -7.124,-15.749 -15.913,-15.749c-8.788,0 -15.913,7.051 -15.913,15.749c0,8.699 7.126,15.749 15.913,15.749Z" style="fill:#5dcd55;fill-rule:nonzero;"/></g></g></svg>